<?xml version="1.0" standalone="no"?>
<!DOCTYPE svg PUBLIC "-//W3C//DTD SVG 20010904//EN"
 "http://www.w3.org/TR/2001/REC-SVG-20010904/DTD/svg10.dtd">
<svg version="1.0" xmlns="http://www.w3.org/2000/svg"
 width="1024.000000pt" height="1024.000000pt" viewBox="0 0 1024.000000 1024.000000"
 preserveAspectRatio="xMidYMid meet">
<metadata>
Created by potrace 1.11, written by Peter Selinger 2001-2013
</metadata>
<g transform="translate(0.000000,1024.000000) scale(0.100000,-0.100000)"
fill="#000000" stroke="none">
<path d="M3066 9455 c-47 -16 -80 -46 -102 -94 -16 -32 -17 -82 -18 -506 l-1
-470 -85 -2 c-47 -2 -258 -4 -470 -6 -212 -2 -403 -7 -425 -11 -71 -14 -178
-55 -245 -95 -224 -134 -374 -365 -397 -613 -10 -101 -9 -6149 1 -6198 38
-197 114 -340 243 -460 83 -77 97 -88 178 -131 83 -45 147 -66 260 -87 22 -4
1433 -7 3135 -7 l3095 0 83 23 c219 60 395 199 510 402 42 74 60 128 80 235
16 84 17 310 16 3155 -1 2332 -4 3080 -13 3127 -66 346 -347 611 -696 657 -22
3 -238 5 -480 6 l-441 0 0 468 c-1 341 -4 477 -13 504 -14 42 -68 94 -109 105
-35 10 -809 10 -844 1 -39 -11 -86 -55 -104 -97 -14 -31 -16 -102 -17 -508 l0
-473 -1087 0 -1087 0 0 463 c0 497 -2 517 -51 570 -48 51 -84 55 -499 55 -284
0 -389 -4 -417 -13z m5044 -5242 c0 -1930 -3 -2544 -12 -2569 -7 -20 -23 -38
-38 -44 -20 -8 -830 -11 -2944 -12 -2692 0 -2919 1 -2942 17 -14 9 -29 27 -34
41 -6 16 -10 975 -10 2565 l0 2539 2990 0 2990 0 0 -2537z"/>
<path d="M6520 5720 c-36 -19 -96 -77 -1249 -1220 -386 -382 -705 -696 -709
-698 -7 -2 -154 146 -652 657 -152 157 -197 182 -286 160 -45 -11 -68 -31
-291 -252 -133 -132 -250 -256 -259 -276 -21 -43 -20 -90 2 -133 23 -47 1360
-1385 1408 -1410 52 -26 107 -25 157 4 54 32 2505 2484 2525 2527 22 45 20 90
-4 137 -27 52 -450 472 -504 501 -51 28 -91 29 -138 3z"/>
</g>
</svg>
